<svg version="1.1" id="Layer_1" xmlns="http://www.w3.org/2000/svg" xmlns:xlink="http://www.w3.org/1999/xlink" x="0px"
    y="0px" width="100%" viewBox="0 0 512 512" enable-background="new 0 0 512 512" xml:space="preserve">
    <path fill="#d62e02" opacity="1.000000" stroke="none" d="
M225.000000,1.000002 
	C246.020889,1.000000 267.041779,1.000000 288.302734,1.395216 
	C292.971344,2.543711 297.423645,3.179438 301.824554,4.069370 
	C330.120972,9.791344 357.200562,18.820456 382.482086,33.049385 
	C402.837616,44.505882 421.372559,58.399609 437.949341,74.707985 
	C447.165405,83.774803 455.747253,93.692383 463.358856,104.141502 
	C479.775055,126.677391 492.878693,151.075790 500.688354,178.096008 
	C485.069275,178.288467 469.821991,178.288467 454.339355,178.288467 
	C449.447266,237.745728 444.634857,296.233917 439.822479,354.722107 
	C439.270569,354.704285 438.718658,354.686462 438.166748,354.668640 
	C431.429474,305.543335 424.692200,256.417999 417.968811,207.393951 
	C398.767242,207.393951 380.047089,207.393951 361.402466,207.393951 
	C353.658508,257.909119 345.975098,308.029327 338.291656,358.149567 
	C337.957306,358.111542 337.622925,358.073517 337.288574,358.035461 
	C332.514893,298.313599 327.741241,238.591751 322.974823,178.960617 
	C302.292694,178.960617 282.227325,178.960617 261.634705,178.960617 
	C272.763550,254.182724 283.826965,328.962463 294.916534,403.919128 
	C319.356415,403.919128 343.439514,403.919128 367.800537,403.919128 
	C374.316315,355.078766 380.806305,306.431793 387.296295,257.784821 
	C387.739624,257.772583 388.182953,257.760345 388.626282,257.748108 
	C394.854706,306.423676 401.083160,355.099213 407.360199,404.154724 
	C409.517029,404.154724 411.317535,404.154724 413.118042,404.154724 
	C429.113159,404.154755 445.108307,404.133301 461.103271,404.184998 
	C462.878937,404.190765 464.653259,404.613281 466.241882,405.177307 
	C460.590912,412.621887 455.639832,420.212646 449.539001,426.726593 
	C440.773438,436.085724 431.381226,444.892944 421.874329,453.514374 
	C408.403931,465.730011 393.121948,475.503265 377.078766,483.883331 
	C349.943115,498.057556 321.316681,507.856293 290.670685,511.093079 
	C290.053528,511.158264 289.554260,512.339417 289.000000,513.000000 
	C267.979095,513.000000 246.958206,513.000000 225.697266,512.604736 
	C224.613525,511.808502 223.808716,511.214966 222.920288,511.035583 
	C211.148651,508.658813 199.233459,506.858246 187.611542,503.901886 
	C161.426422,497.240936 137.323593,485.629242 114.817627,470.868103 
	C95.371109,458.113525 78.136742,442.628357 62.814354,425.146484 
	C57.252110,418.800385 52.625286,411.634399 47.934174,404.587891 
	C55.291241,404.273651 62.287651,404.097870 69.279472,404.209534 
	C72.229393,404.256622 73.521500,403.544342 74.274887,400.318604 
	C78.571053,381.923828 83.345619,363.640869 87.654297,345.248871 
	C88.468773,341.772186 89.749428,340.744720 93.252472,340.764526 
	C119.080376,340.910370 144.910019,340.923340 170.737595,340.752136 
	C174.367630,340.728088 175.474655,342.001404 176.255753,345.331268 
	C180.471329,363.302887 185.064697,381.185822 189.281540,399.157135 
	C190.141098,402.820343 191.418213,404.301514 195.473053,404.259796 
	C217.133545,404.036804 238.797562,404.159912 260.460358,404.142670 
	C261.856445,404.141571 263.252380,403.967529 265.041931,403.847595 
	C258.281708,381.789551 251.649963,360.189728 245.042114,338.582550 
	C222.194534,263.872620 199.323334,189.169830 176.606125,114.420265 
	C175.453796,110.628632 173.731155,109.725990 169.985535,109.753525 
	C145.657852,109.932358 121.323853,110.091133 97.002518,109.659622 
	C91.437271,109.560883 89.697342,111.687523 88.302963,116.340912 
	C77.934891,150.941635 67.411674,185.496048 56.872112,220.045166 
	C47.639515,250.309998 38.370808,280.564026 29.018982,310.792175 
	C25.210062,323.103882 21.139635,335.334656 16.889107,347.308044 
	C10.212431,328.668243 4.590529,310.142761 2.903364,290.650238 
	C2.851388,290.049774 1.660115,289.547882 0.999997,289.000000 
	C1.000000,267.979095 1.000000,246.958206 1.395206,225.697281 
	C2.185551,224.779434 2.788961,224.146225 2.945005,223.417236 
	C5.933290,209.457153 8.289930,195.331665 11.956844,181.554382 
	C16.947580,162.803268 24.522053,144.914368 35.010460,128.580719 
	C44.054829,114.495842 53.584282,100.593727 64.221848,87.702141 
	C72.446281,77.735001 82.502831,69.220383 92.129608,60.483971 
	C105.595009,48.263966 120.880424,38.495308 136.923569,30.115950 
	C164.059006,15.943077 192.684189,6.143460 223.329437,2.906959 
	C223.946548,2.841784 224.445786,1.660553 225.000000,1.000002 
z" />
    <path fill="#FFFEFF" opacity="1.000000" stroke="none" d="
M17.188190,347.602264 
	C21.139635,335.334656 25.210062,323.103882 29.018982,310.792175 
	C38.370808,280.564026 47.639515,250.309998 56.872112,220.045166 
	C67.411674,185.496048 77.934891,150.941635 88.302963,116.340912 
	C89.697342,111.687523 91.437271,109.560883 97.002518,109.659622 
	C121.323853,110.091133 145.657852,109.932358 169.985535,109.753525 
	C173.731155,109.725990 175.453796,110.628632 176.606125,114.420265 
	C199.323334,189.169830 222.194534,263.872620 245.042114,338.582550 
	C251.649963,360.189728 258.281708,381.789551 265.041931,403.847595 
	C263.252380,403.967529 261.856445,404.141571 260.460358,404.142670 
	C238.797562,404.159912 217.133545,404.036804 195.473053,404.259796 
	C191.418213,404.301514 190.141098,402.820343 189.281540,399.157135 
	C185.064697,381.185822 180.471329,363.302887 176.255753,345.331268 
	C175.474655,342.001404 174.367630,340.728088 170.737595,340.752136 
	C144.910019,340.923340 119.080376,340.910370 93.252472,340.764526 
	C89.749428,340.744720 88.468773,341.772186 87.654297,345.248871 
	C83.345619,363.640869 78.571053,381.923828 74.274887,400.318604 
	C73.521500,403.544342 72.229393,404.256622 69.279472,404.209534 
	C62.287651,404.097870 55.291241,404.273651 47.509415,404.649231 
	C31.481428,404.976807 16.240713,404.988403 1.000000,405.000000 
	C1.000000,402.299988 1.000000,399.599976 1.330723,396.745056 
	C2.104007,395.954193 2.745328,395.378723 2.959923,394.673401 
	C7.731090,378.991669 12.455172,363.295593 17.188190,347.602264 
M140.142410,194.237869 
	C137.493195,183.330093 134.843964,172.422302 132.194733,161.514526 
	C131.907043,161.541229 131.619354,161.567932 131.331665,161.594635 
	C120.883896,204.270248 110.436119,246.945862 99.939835,289.819641 
	C121.271843,289.819641 142.141068,289.819641 163.567123,289.819641 
	C155.758347,257.925140 148.059708,226.480453 140.142410,194.237869 
z" />
    <path fill="#FFFEFF" opacity="1.000000" stroke="none" d="
M466.428223,404.842468 
	C464.653259,404.613281 462.878937,404.190765 461.103271,404.184998 
	C445.108307,404.133301 429.113159,404.154755 413.118042,404.154724 
	C411.317535,404.154724 409.517029,404.154724 407.360199,404.154724 
	C401.083160,355.099213 394.854706,306.423676 388.626282,257.748108 
	C388.182953,257.760345 387.739624,257.772583 387.296295,257.784821 
	C380.806305,306.431793 374.316315,355.078766 367.800537,403.919128 
	C343.439514,403.919128 319.356415,403.919128 294.916534,403.919128 
	C283.826965,328.962463 272.763550,254.182724 261.634705,178.960617 
	C282.227325,178.960617 302.292694,178.960617 322.974823,178.960617 
	C327.741241,238.591751 332.514893,298.313599 337.288574,358.035461 
	C337.622925,358.073517 337.957306,358.111542 338.291656,358.149567 
	C345.975098,308.029327 353.658508,257.909119 361.402466,207.393951 
	C380.047089,207.393951 398.767242,207.393951 417.968811,207.393951 
	C424.692200,256.417999 431.429474,305.543335 438.166748,354.668640 
	C438.718658,354.686462 439.270569,354.704285 439.822479,354.722107 
	C444.634857,296.233917 449.447266,237.745728 454.339355,178.288467 
	C469.821991,178.288467 485.069275,178.288467 501.143707,178.140503 
	C505.647247,177.995041 509.323608,177.997528 513.000000,178.000000 
	C513.000000,183.688034 513.000000,189.376083 512.635071,195.230530 
	C511.846954,196.697464 511.275085,197.970520 511.028687,199.303726 
	C510.314026,203.170319 509.730042,207.061050 508.979797,211.345108 
	C506.236969,230.271805 503.627106,248.798279 500.976776,267.318970 
	C497.481567,291.743805 493.892365,316.155426 490.471527,340.590607 
	C489.081085,350.522552 488.027039,360.501617 486.835693,370.844543 
	C485.567810,379.820831 483.993988,388.381317 483.088348,397.011963 
	C482.304077,404.485413 482.150482,405.014496 474.853485,404.993195 
	C472.044922,404.984985 469.236633,404.895142 466.428223,404.842468 
z" />
    <path fill="transparent" opacity="1.000000" stroke="none" d="
M224.531342,1.000002 
	C224.445786,1.660553 223.946548,2.841784 223.329437,2.906959 
	C192.684189,6.143460 164.059006,15.943077 136.923569,30.115950 
	C120.880424,38.495308 105.595009,48.263966 92.129608,60.483971 
	C82.502831,69.220383 72.446281,77.735001 64.221848,87.702141 
	C53.584282,100.593727 44.054829,114.495842 35.010460,128.580719 
	C24.522053,144.914368 16.947580,162.803268 11.956844,181.554382 
	C8.289930,195.331665 5.933290,209.457153 2.945005,223.417236 
	C2.788961,224.146225 2.185551,224.779434 1.395206,225.228622 
	C1.000000,150.406296 1.000000,75.812576 1.000000,1.000000 
	C75.354088,1.000000 149.708389,1.000000 224.531342,1.000002 
z" />
    <path fill="transparent" opacity="1.000000" stroke="none" d="
M466.241882,405.177307 
	C469.236633,404.895142 472.044922,404.984985 474.853485,404.993195 
	C482.150482,405.014496 482.304077,404.485413 483.088348,397.011963 
	C483.993988,388.381317 485.567810,379.820831 487.152496,370.607056 
	C499.474091,344.952454 507.995361,318.877960 511.077271,291.159454 
	C511.164154,290.378052 512.334778,289.717133 513.000000,289.000000 
	C513.000000,363.593719 513.000000,438.187408 513.000000,513.000000 
	C438.645905,513.000000 364.291626,513.000000 289.468658,513.000000 
	C289.554260,512.339417 290.053528,511.158264 290.670685,511.093079 
	C321.316681,507.856293 349.943115,498.057556 377.078766,483.883331 
	C393.121948,475.503265 408.403931,465.730011 421.874329,453.514374 
	C431.381226,444.892944 440.773438,436.085724 449.539001,426.726593 
	C455.639832,420.212646 460.590912,412.621887 466.241882,405.177307 
z" />
    <path fill="transparent" opacity="1.000000" stroke="none" d="
M513.000000,177.531342 
	C509.323608,177.997528 505.647247,177.995041 501.515503,177.948044 
	C492.878693,151.075790 479.775055,126.677391 463.358856,104.141502 
	C455.747253,93.692383 447.165405,83.774803 437.949341,74.707985 
	C421.372559,58.399609 402.837616,44.505882 382.482086,33.049385 
	C357.200562,18.820456 330.120972,9.791344 301.824554,4.069370 
	C297.423645,3.179438 292.971344,2.543711 288.771393,1.395216 
	C363.585114,1.000000 438.170258,1.000000 513.000000,1.000000 
	C513.000000,59.687336 513.000000,118.375008 513.000000,177.531342 
z" />
    <path fill="transparent" opacity="1.000000" stroke="none" d="
M1.000000,405.468658 
	C16.240713,404.988403 31.481428,404.976807 47.146904,404.903839 
	C52.625286,411.634399 57.252110,418.800385 62.814354,425.146484 
	C78.136742,442.628357 95.371109,458.113525 114.817627,470.868103 
	C137.323593,485.629242 161.426422,497.240936 187.611542,503.901886 
	C199.233459,506.858246 211.148651,508.658813 222.920288,511.035583 
	C223.808716,511.214966 224.613525,511.808502 225.228607,512.604736 
	C150.431839,513.000000 75.863670,513.000000 1.000000,513.000000 
	C1.000000,477.312988 1.000000,441.625153 1.000000,405.468658 
z" />
    <path fill="#d62e02" opacity="1.000000" stroke="none" d="
M513.000000,288.531342 
	C512.334778,289.717133 511.164154,290.378052 511.077271,291.159454 
	C507.995361,318.877960 499.474091,344.952454 487.136658,370.221741 
	C488.027039,360.501617 489.081085,350.522552 490.471527,340.590607 
	C493.892365,316.155426 497.481567,291.743805 500.976776,267.318970 
	C503.627106,248.798279 506.236969,230.271805 509.324554,211.568329 
	C510.196564,215.393875 510.532990,219.409805 511.100983,223.392700 
	C511.188477,224.006271 512.340332,224.468033 513.000000,225.000000 
	C513.000000,246.020889 513.000000,267.041779 513.000000,288.531342 
z" />
    <path fill="transparent" opacity="1.000000" stroke="none" d="
M16.889111,347.308044 
	C12.455172,363.295593 7.731090,378.991669 2.959923,394.673401 
	C2.745328,395.378723 2.104007,395.954193 1.330723,396.295044 
	C1.000000,360.645782 1.000000,325.291534 0.999997,289.468658 
	C1.660115,289.547882 2.851388,290.049774 2.903364,290.650238 
	C4.590529,310.142761 10.212431,328.668243 16.889111,347.308044 
z" />
    <path fill="transparent" opacity="1.000000" stroke="none" d="
M513.000000,224.531342 
	C512.340332,224.468033 511.188477,224.006271 511.100983,223.392700 
	C510.532990,219.409805 510.196564,215.393875 509.439545,211.165543 
	C509.730042,207.061050 510.314026,203.170319 511.028687,199.303726 
	C511.275085,197.970520 511.846954,196.697464 512.635071,195.698456 
	C513.000000,205.354233 513.000000,214.708450 513.000000,224.531342 
z" />
    <path fill="#d62e02" opacity="1.000000" stroke="none" d="
M140.251740,194.636810 
	C148.059708,226.480453 155.758347,257.925140 163.567123,289.819641 
	C142.141068,289.819641 121.271843,289.819641 99.939835,289.819641 
	C110.436119,246.945862 120.883896,204.270248 131.331665,161.594635 
	C131.619354,161.567932 131.907043,161.541229 132.194733,161.514526 
	C134.843964,172.422302 137.493195,183.330093 140.251740,194.636810 
z" />
</svg>